<?xml version="1.0" encoding="utf-8"?>
<!-- Generator: Adobe Illustrator 21.1.0, SVG Export Plug-In . SVG Version: 6.00 Build 0)  -->
<svg version="1.1" id="Слой_1" xmlns="http://www.w3.org/2000/svg" xmlns:xlink="http://www.w3.org/1999/xlink" x="0px" y="0px"
	 viewBox="0 0 156 36" style="enable-background:new 0 0 156 36;" xml:space="preserve">
<style type="text/css">
	.st0{fill:#188BFA;}
	.st1{fill:#ACACAE;}
	.st2{fill:#555559;}
	.st3{fill:#56565A;}
</style>
<path class="st0" d="M37.6,10.7c0-0.7-0.2-1.4-0.6-2.1c-0.1-0.2-0.2-0.4-0.1-0.6c0.1-0.5,0-1-0.1-1.5c-0.2-1.1-0.8-1.9-1.6-2.7
	c-0.8-0.7-1.7-1.2-2.7-1.6c-0.9-0.3-1.9-0.6-2.9-0.7c-0.7-0.1-1.4-0.2-2.1-0.2c0,0-0.1,0-0.1,0c-1.1,0-2.2,0-3.2,0c0,0-0.1,0-0.1,0
	c-0.7,0-1.4,0.1-2,0.1c-1.9,0.2-3.7,0.6-5.5,1.2c-1.6,0.5-3.1,1.1-4.5,1.9c-1.5,0.8-3,1.7-4.1,3.1C7.2,8.3,6.7,9,6.4,9.8
	c-0.7,1.6-0.6,3.2-0.1,4.8c0.4,1.3,1,2.4,1.7,3.5c0.2,0.4,0.5,0.7,0.8,1.1c0.1,0.1,0.1,0.2-0.1,0.2c0,0-0.1,0-0.1,0
	c-1.8,0.7-3.5,1.5-5,2.8C2.7,23,2,23.9,1.9,25.1c0,0.4,0,0.8,0,1.2c0,0.5,0.1,0.9,0.4,1.3c0.3,0.4,0.3,0.9,0.3,1.4
	c0,0.9,0.2,1.7,0.7,2.5c0.6,1,1.5,1.7,2.5,2.2c1.6,0.8,3.3,1.2,5.1,1.4c0.4,0,0.8,0,1.2,0.1c1.2,0,2.4,0,3.6,0c0,0,0,0,0.1,0
	c0.4,0,0.8-0.1,1.2-0.1c0.5,0,1.1-0.1,1.6-0.2c1.1-0.2,2.2-0.4,3.3-0.7c1.7-0.5,3.3-1.1,4.9-1.8c0.7-0.3,1.4-0.7,2-1.1
	c1-0.6,2-1.3,2.8-2.2c0.6-0.7,1.1-1.4,1.5-2.2c0.3-0.7,0.5-1.4,0.5-2.2c0-0.5,0-1-0.1-1.5c-0.1-0.9-0.4-1.8-0.8-2.6
	c-0.6-1.2-1.3-2.3-2.1-3.4c0,0,0.1,0,0.1-0.1c1-0.3,2-0.7,2.9-1.2c1.1-0.6,2.2-1.3,3-2.3C37.1,12.7,37.6,11.8,37.6,10.7z M36.3,8.6
	c-0.2,0.8-0.6,1.4-1.1,2c-0.3,0.4-0.7,0.8-1,1.1c-0.8,0.7-1.6,1.3-2.5,1.9c-0.8,0.5-1.7,1-2.6,1.4c-0.1,0.1-0.3,0.1-0.4,0.2
	c-0.1,0-0.1,0-0.2,0c-0.6-0.7-1.3-1.2-2-1.8c-1-0.8-2.1-1.6-3.2-2.3c-0.4-0.3-0.9-0.5-1.3-0.8c-0.3-0.2-0.2-0.2-0.5,0.1
	c-0.1,0.1-0.1,0.1,0,0.2c0.7,0.5,1.3,1.1,1.9,1.6c0.4,0.4,0.9,0.8,1.3,1.2c0.7,0.7,1.4,1.5,2,2.3c0.8,1,1.5,2,2.1,3
	c0.5,0.8,0.9,1.6,1.2,2.5c0.2,0.6,0.5,1.1,0.6,1.7c0.1,0.5,0.2,1.1,0.3,1.6c0,0.8-0.1,1.5-0.3,2.3c-0.2,0.7-0.6,1.2-1.1,1.8
	c-0.8,0.9-1.8,1.6-2.9,2.1c-1.2,0.6-2.4,1-3.6,1.2c-0.7,0.2-1.5,0.3-2.2,0.4c-0.3,0.1-0.7,0.1-1,0.1c-0.7,0.1-1.5,0.1-2.2,0.2
	c-0.7,0-1.5,0-2.2,0c-0.5,0-0.9,0-1.4-0.1c-0.6-0.1-1.1-0.1-1.7-0.2c-0.7-0.1-1.4-0.3-2.1-0.4c-0.9-0.2-1.8-0.5-2.7-0.9
	c-0.8-0.4-1.6-0.8-2.3-1.3c-0.6-0.4-1.2-0.9-1.7-1.4c-0.3-0.3-0.3-0.7-0.1-1c0.3-0.7,0.7-1.3,1.2-1.9c0.9-1.1,2-1.9,3.2-2.7
	c0.9-0.6,1.9-1.1,2.9-1.6c0.1,0,0.1,0,0.2,0c1.1,1.1,2.3,2.1,3.6,3c1,0.7,2.1,1.4,3.1,2c0,0,0.1,0,0.1,0c0.3-0.4,0.2-0.4-0.1-0.6
	c-0.3-0.3-0.7-0.5-1-0.8c-0.6-0.5-1.2-1-1.7-1.6c-0.8-0.8-1.5-1.7-2.2-2.5c-0.9-1.2-1.7-2.4-2.4-3.7c-0.7-1.2-1.2-2.5-1.6-3.9
	c-0.2-0.7-0.3-1.4-0.2-2.1C8.5,9.9,9,8.8,9.8,7.8c0.7-0.8,1.5-1.4,2.4-1.9c1.5-0.8,3.1-1.3,4.7-1.6C17.6,4.1,18.3,4,19,4
	c0.7-0.1,1.4-0.2,2.1-0.2c0.7,0,1.4-0.1,2.2-0.1c0.9,0,1.7,0.1,2.6,0.1C27.6,4,29.3,4.3,31,4.9c1.4,0.5,2.8,1.2,4,2.1
	c0.5,0.4,0.9,0.8,1.3,1.3C36.3,8.4,36.3,8.5,36.3,8.6z"/>
<path class="st1" d="M130.9,14.4c-0.1-0.1,0-0.3,0-0.5c0,0,0,0,0,0C130.9,14.1,130.9,14.2,130.9,14.4z"/>
<path class="st2" d="M42.7,26.1c-0.4,0-1-0.1-1.6-0.3c-0.4-0.2-0.7-0.4-0.8-0.9c0-0.3,0-0.3,0.2-0.2c0.8,0.2,1.6,0.5,2.5,0.5
	c0.4,0,0.8-0.1,1.2-0.3c1.1-0.5,1.1-2,0.4-2.7c-0.3-0.3-0.8-0.6-1.2-0.9c-0.7-0.5-1.5-0.9-2.2-1.4c-0.6-0.5-1-1-1.1-1.8
	c-0.1-1,0.3-1.8,1.1-2.4c1.1-0.7,2.2-0.8,3.4-0.5c0.2,0.1,0.4,0.2,0.6,0.3c0.2,0.1,0.3,0.3,0.4,0.5c0.1,0.2,0.1,0.3,0,0.4
	c-0.1,0.1-0.2,0-0.3-0.1c-0.9-0.3-1.9-0.4-2.9-0.1c-0.3,0.1-0.6,0.2-0.9,0.5c-0.5,0.5-0.5,1.1-0.2,1.6c0.2,0.4,0.6,0.7,1,0.9
	c0.7,0.5,1.5,0.9,2.2,1.4c0.3,0.2,0.6,0.5,0.9,0.8c1.3,1.4,0.7,3.6-1,4.3C44.1,26,43.5,26.1,42.7,26.1z"/>
<path class="st2" d="M50.8,20.6c0-1.4,0-2.8,0-4.2c0-0.7,0.5-1.2,1.2-1.2c1,0,2,0,2.9,0c0.3,0,0.6,0.1,0.9,0.2
	c0.2,0.1,0.3,0.2,0.4,0.3c0.1,0.1,0.2,0.3,0.2,0.4c0,0.1-0.2,0-0.4,0c-1.3,0-2.5,0-3.8,0c-0.3,0-0.4,0.1-0.4,0.4c0,1,0,2.1,0,3.1
	c0,0.2,0.1,0.2,0.2,0.2c0.9,0,1.7,0,2.6,0c0.2,0,0.3,0.1,0.2,0.2c0,0.2,0,0.3,0,0.5c0,0.2-0.1,0.3-0.3,0.3c-0.8,0-1.7,0-2.5,0
	c-0.2,0-0.2,0.1-0.2,0.2c0,1.2,0,2.3,0,3.5c0,0.4,0.1,0.5,0.5,0.5c1.3,0,2.6,0,3.9,0c0.2,0,0.3,0,0.2,0.2c-0.1,0.3-0.3,0.4-0.6,0.5
	c-0.3,0.1-0.6,0.2-0.9,0.2c-1,0-2,0-2.9,0c-0.7,0-1.2-0.5-1.2-1.2C50.8,23.4,50.8,22,50.8,20.6z"/>
<path class="st2" d="M110.6,20.6c0-1.4,0-2.8,0-4.2c0-0.2,0-0.3-0.3-0.3c-1.1,0-2.2,0-3.4,0c-0.2,0-0.2-0.1-0.1-0.2
	c0.2-0.5,0.7-0.7,1.2-0.7c0.1,0,0.3,0,0.4,0c1.8,0,3.6,0,5.4,0c0.4,0,0.7,0.1,1,0.2c0.2,0.1,0.4,0.3,0.5,0.5
	c0.1,0.2,0.1,0.2-0.1,0.2c-0.9,0-1.9,0-2.8,0c-0.2,0-0.3,0-0.5,0c-0.1,0-0.2,0-0.1,0.1c0,0.1,0,0.1,0,0.2c0,3.1,0,6.2,0,9.2
	c0,0.3,0,0.3-0.3,0.2c-0.5-0.2-0.8-0.6-0.8-1.2C110.6,23.4,110.6,22,110.6,20.6C110.6,20.6,110.6,20.6,110.6,20.6z"/>
<path class="st2" d="M122.1,19.9c0.6-0.9,1.2-1.7,1.8-2.6c0.5-0.7,1-1.3,1.4-2c0.1-0.2,0.2-0.1,0.3,0c0.3,0.4,0.4,1,0.1,1.4
	c-0.9,1.4-1.9,2.7-2.9,4.1c-0.1,0.2-0.2,0.3-0.2,0.5c0,1.5,0,3,0,4.4c0,0.3,0,0.3-0.3,0.2c-0.5-0.2-0.8-0.6-0.8-1.1
	c0-1.2,0-2.4,0-3.5c0-0.2,0-0.3-0.1-0.4c-1-1.4-1.9-2.7-2.9-4.1c-0.3-0.5-0.3-1,0-1.5c0.1-0.1,0.2-0.1,0.3,0c1,1.4,1.9,2.7,2.9,4.1
	C121.8,19.6,121.9,19.7,122.1,19.9z"/>
<path class="st2" d="M98,25c0,0.4-0.2,0.6-0.5,0.7c-0.3,0.2-0.6,0.2-0.9,0.2c-1,0-2,0-3,0c-0.6,0-1.1-0.5-1.1-1.1c0-2.8,0-5.7,0-8.5
	c0-0.5,0.4-1,0.9-1.1c0.1,0,0.2,0,0.2,0.1c0,0.1,0,0.1,0,0.2c0,3,0,6.1,0,9.1c0,0.4,0.1,0.4,0.4,0.4c1.3,0,2.5,0,3.8,0
	C97.9,25,97.9,25,98,25z"/>
<path class="st2" d="M86.8,20.6c0,1.7,0,3.4,0,5.2c0,0.2-0.1,0.2-0.2,0.2c-0.5-0.2-0.9-0.6-0.9-1.2c0-2.8,0-5.6,0-8.3
	c0-0.6,0.3-1,0.9-1.2c0.2-0.1,0.2,0,0.2,0.2C86.8,17.1,86.8,18.9,86.8,20.6z"/>
<path class="st2" d="M102.8,20.6c0,1.7,0,3.4,0,5.2c0,0.2-0.1,0.2-0.2,0.2c-0.5-0.2-0.9-0.6-0.9-1.1c0-2.8,0-5.6,0-8.4
	c0-0.6,0.3-1,0.9-1.1c0.2-0.1,0.2,0,0.2,0.2C102.8,17.1,102.8,18.9,102.8,20.6z"/>
<path class="st2" d="M130.8,13.9c-0.1-0.8-0.8-1.3-1.7-1.2c-0.8,0.1-1.4,0.7-1.4,1.5c0,0.8,0.5,1.3,1.3,1.4c0.8,0.1,1.5-0.3,1.7-1
	C130.8,14.5,130.9,14.1,130.8,13.9z M129.3,15.4c-0.8,0-1.3-0.6-1.3-1.3c0-0.7,0.6-1.3,1.4-1.3c0.8,0,1.3,0.5,1.3,1.3
	C130.6,14.9,130.1,15.4,129.3,15.4z"/>
<path class="st2" d="M80.4,21.4c-0.3-0.5-0.6-0.8-1.1-1.1c0.1,0,0.1-0.1,0.1-0.1c0.9-0.8,1.2-2,0.8-3.1c-0.4-1.1-1.5-1.8-2.6-1.8
	c-0.8,0-1.5,0-2.3,0c-0.7,0-1.2,0.5-1.2,1.2c0,2.8,0,5.6,0,8.4c0,0.7,0.5,1.2,1.2,1.2c0.8,0,1.7,0,2.5,0C80,26,81.5,23.4,80.4,21.4z
	 M75,18.1c0-0.5,0-1,0-1.5c0-0.3,0.1-0.4,0.4-0.4c0.7,0,1.4,0,2,0c0.8,0,1.5,0.5,1.8,1.3c0.2,0.7,0,1.6-0.7,2.1
	c-0.3,0.2-0.6,0.3-0.9,0.3c-0.8,0-1.6,0-2.4,0c-0.1,0-0.2,0-0.2-0.2C75,19.1,75,18.6,75,18.1z M79.8,23c-0.1,1.1-1,2-2.1,2
	c-0.7,0-1.5,0-2.2,0c-0.3,0-0.4-0.1-0.4-0.4c0-0.6,0-1.2,0-1.8c0-0.6,0-1.2,0-1.8c0-0.1,0-0.2,0.1-0.2c0.9,0,1.8-0.1,2.7,0
	C79,21,79.8,21.9,79.8,23z"/>
<path class="st2" d="M68.4,16.7c-1.6-1.8-4.1-2.2-6.1-1.1c-1.9,1.1-2.7,2.8-2.8,4.4c0,1.6,0.3,2.6,0.8,3.6c1.6,2.6,5,3.3,7.3,1.4
	C70.2,23.1,70.5,19.1,68.4,16.7z M66.9,24.4c-1.6,1.2-3.8,0.9-5.1-0.6c-1.7-1.9-1.6-4.9,0.3-6.7c1.7-1.6,4.3-1.4,5.8,0.5
	c0.6,0.8,1,1.9,1,3.4C68.7,22.1,68.2,23.5,66.9,24.4z"/>
<path class="st3" d="M129.4,14.2c0.1,0,0.1,0,0.1,0c0.3,0,0.4-0.2,0.4-0.5c0-0.3-0.2-0.5-0.5-0.5c-0.2,0-0.3,0-0.5,0
	c-0.1,0-0.2,0-0.2,0.1c0,0.5,0,0.9,0,1.4c0,0.1,0,0.1,0.1,0.1c0.1,0,0.1-0.1,0.1-0.1c0-0.2,0-0.4,0-0.6c0.2,0.2,0.4,0.4,0.6,0.6
	c0.1,0.1,0.2,0.2,0.4,0.1C129.8,14.7,129.6,14.5,129.4,14.2z M129.1,14c-0.2,0-0.1-0.2-0.1-0.3c0,0-0.1-0.3,0.1-0.3
	c0.3-0.1,0.5,0,0.6,0.2c0,0.2,0,0.3-0.2,0.3C129.4,14,129.3,14,129.1,14z"/>
</svg>
